<?xml version="1.0" encoding="utf-8"?>
<!-- Generator: Adobe Illustrator 16.0.0, SVG Export Plug-In . SVG Version: 6.00 Build 0)  -->
<!DOCTYPE svg PUBLIC "-//W3C//DTD SVG 1.1//EN" "http://www.w3.org/Graphics/SVG/1.1/DTD/svg11.dtd">
<svg version="1.1" id="Layer_1" xmlns="http://www.w3.org/2000/svg" xmlns:xlink="http://www.w3.org/1999/xlink" x="0px" y="0px"
	 width="2112px" height="1392px" viewBox="0 0 2112 1392" enable-background="new 0 0 2112 1392" xml:space="preserve">
<g>
	<g>
		<g>
			<path fill="#010101" d="M812.894,558.227"/>
			<path fill="#010101" d="M812.894,558.227c0,0,42.392,21.629,22.858,70.479c0,0-14.467,41.667-72.34,41.667
				c0,0-51.363,92.675,10.851,173.854c0,0,39.064,38.795,75.235,52.444c0,0,70.17,20.834,121.533,58.19
				c0,0,23.873,17.24,28.936,28.734c0,0,11.575,15.807,18.085,54.6c0,0,2.17,7.545-13.021-8.979c0,0-38.34-48.853-138.896-69.686
				l-65.106-19.756l83.917,0.358c0,0-51.363-30.173-81.747-38.794c0,0-83.191-29.095-92.595-43.463
				c0,0-79.577-76.151-24.598-170.979c0,0,22.425-24.427,15.191-72.56c0,0-5.786-10.776-13.744-15.805
				c0,0-143.959-91.955-153.363-97.703c-9.403-5.747-61.491-33.046-91.149-97.702c0,0-18.81-44.542-4.342-112.79
				c0,0-4.34,96.984,78.854,144.399c0,0,96.938,63.578,157.704,75.074C675.156,509.811,816.077,556.716,812.894,558.227z"/>
			<path fill="#010101" d="M743.158,902.417c0,0-23.15-1.437-39.064,33.047c0,0-7.958,38.076-35.447,32.329
				c0,0-38.341-6.467-10.853-38.076C657.794,929.717,689.624,885.895,743.158,902.417z"/>
			<path fill="#010101" d="M720.73,878.71c0,0-143.958-8.621-146.128,45.26c0,0,22.426,23.708,40.511,15.806
				c3.928-2.601,15.932-12.234,30.707-22.152C671.865,900.137,706.521,879.498,720.73,878.71z"/>
			<path fill="#010101" d="M683.476,856.08c0,0-19.074-0.421-40.002,3.21c-12.559,2.179-25.782,5.815-35.957,11.877
				c0,0-43.043,16.163-51,19.756c0,0-23.873,12.572-38.703-4.67c0,0-10.852-20.862,0-30.188c0,0,13.383-15.071,43.767-12.916
				c0,0,111.044,6.105,121.896,9.339C683.476,852.488,687.454,853.925,683.476,856.08z"/>
			<path fill="#010101" d="M644.411,827.344c0,0-44.128-40.947-177.959-47.055c0,0-82.831-5.029-124.065-34.124
				c0,0,15.191,41.487,69.99,69.505c0,0,54.256,22.809,149.204,11.674C561.58,827.344,637.72,822.854,644.411,827.344z"/>
			<path fill="#010101" d="M599.118,772.027c0,0-20.175-50.647-99.389-70.045c0,0-132.927-11.854-207.8-87.824
				c0,0-4.34-2.155,0,5.388c4.34,7.544,8.681,52.804,58.054,92.674c0,0,14.105,24.785,108.512,33.945
				c0,0,32.011,10.775,96.576,10.775c0,0,34.925,11.854,44.048,18.318L599.118,772.027L599.118,772.027z"/>
			<path fill="#010101" d="M590.336,707.91c0,0-16.276-24.246-80.841-36.102c0,0-96.033-11.854-124.789-31.25
				c-28.755-19.396-39.064-12.932-66.734-85.131c1.258,4.873-9.216-46.899-8.681-48.492c0,0,51,61.963,107.427,86.747
				c0,0,33.291,10.757,64.357,23.444c21.548,8.801,42.025,19.091,49.58,25.048c0,0,38.521,10.776,62.937,65.734
				C593.591,707.91,592.62,710.49,590.336,707.91z"/>
			<path fill="#010101" d="M588.708,655.645c0,0-25.5-85.13-39.607-98.062c0,0-39.063-36.1-111.767-83.515
				c0,0-42.32-26.401-53.713-52.265l-24.958-50.646c0,0-11.394,100.217,24.415,135.777c35.809,35.562,74.331,70.583,119.906,89.441
				c0,0,63.479,28.019,82.469,59.269C585.453,655.645,589.609,658.605,588.708,655.645z"/>
			<path fill="#010101" d="M661.954,813.515c-5.968-3.771-17.543-14.548-17.543-14.548c-17.236-9.062-24.234-46.875-24.234-46.875
				c-5.425-20.475,0-74.354,0-74.354c0.542-84.592-41.233-125.541-41.233-125.541c53.171,28.557,93.319,61.677,93.319,61.677
				c20.617,16.956,2.17,46.622,2.17,46.622c0,2.694-16.818,38.255-16.818,38.255c-22.245,58.729,6.511,114.766,6.511,114.766
				L661.954,813.515L661.954,813.515z"/>
		</g>
		<g>
			<path fill="#010101" d="M1297.218,556.962"/>
			<path fill="#010101" d="M1297.218,556.962c0,0-42.445,21.521-23.037,70.421c0,0,14.362,41.702,72.237,41.848
				c0,0,51.127,92.803-11.29,173.824c0,0-39.162,38.697-75.367,52.256c0,0-70.224,20.662-121.679,57.891
				c0,0-23.916,17.183-29.008,28.664c0,0-11.615,15.775-18.224,54.554c0,0-2.188,7.539,13.045-8.947c0,0,38.463-48.756,139.07-69.34
				l65.156-19.594l-83.918,0.149c0,0,51.438-30.045,81.844-38.59c0,0,83.266-28.889,92.704-43.233c0,0,79.769-75.954,25.028-170.919
				c0,0-22.366-24.481-15.01-72.596c0,0,5.813-10.762,13.783-15.771c0,0,144.189-91.598,153.608-97.323
				c9.418-5.724,61.574-32.893,91.396-97.476c0,0,18.921-44.495,4.623-112.779c0,0,4.096,96.995-79.215,144.203
				c0,0-97.097,63.338-157.892,74.682C1435.077,508.885,1294.039,555.441,1297.218,556.962z"/>
			<path fill="#010101" d="M1366.087,901.322c0,0,23.154-1.377,38.982,33.145c0,0,7.861,38.096,35.365,32.415
				c0,0,38.356-6.37,10.947-38.049C1451.382,928.833,1419.662,884.932,1366.087,901.322z"/>
			<path fill="#010101" d="M1388.574,877.672c0,0,143.979-8.267,146.014,45.62c0,0-22.485,23.655-40.551,15.704
				c-3.921-2.607-15.899-12.271-30.649-22.229C1437.386,899.22,1402.782,878.495,1388.574,877.672z"/>
			<path fill="#010101" d="M1425.888,855.133c0,0,19.074-0.371,39.992,3.313c12.555,2.208,25.769,5.877,35.928,11.965
				c0,0,43,16.271,50.949,19.882c0,0,23.842,12.631,38.715-4.574c0,0,10.903-20.835,0.075-30.188c0,0-13.346-15.104-43.733-13.024
				c0,0-111.059,5.832-121.918,9.037C1425.896,851.542,1421.912,852.968,1425.888,855.133z"/>
			<path fill="#010101" d="M1465.021,826.494c0,0,44.231-40.838,178.078-46.613c0,0,82.844-4.824,124.151-33.816
				c0,0-15.297,41.45-70.166,69.332c0,0-54.313,22.674-149.229,11.306C1547.854,826.701,1471.726,822.02,1465.021,826.494z"/>
			<path fill="#010101" d="M1510.455,771.289c0,0,20.302-50.596,99.565-69.796c0,0,132.956-11.524,208.02-87.31
				c0,0,4.346-2.145-0.013,5.389c-4.36,7.533-8.813,52.778-58.288,92.528c0,0-14.168,24.75-108.596,33.677
				c0,0-32.039,10.695-96.604,10.535c0,0-34.955,11.768-44.095,18.211L1510.455,771.289z"/>
			<path fill="#010101" d="M1519.398,707.194c0,0,16.339-24.205,80.932-35.899c0,0,96.063-11.615,124.867-30.939
				c28.804-19.325,39.097-12.836,66.946-84.965c-1.27,4.869,9.336-46.877,8.805-48.472c0,0-51.157,61.836-107.645,86.482
				c0,0-33.317,10.673-64.416,23.284c-21.57,8.746-42.074,18.984-49.644,24.925c0,0-38.549,10.681-63.103,65.577
				C1516.144,707.186,1517.106,709.77,1519.398,707.194z"/>
			<path fill="#010101" d="M1521.157,654.936c0,0,25.715-85.067,39.854-97.963c0,0,39.155-36.003,111.978-83.236
				c0,0,42.385-26.297,53.845-52.131l25.085-50.586c0,0,11.144,100.245-24.757,135.718c-35.896,35.472-74.509,70.398-120.13,89.144
				c0,0-63.549,27.859-82.618,59.064C1524.412,654.944,1520.248,657.893,1521.157,654.936z"/>
			<path fill="#010101" d="M1447.515,812.62c5.979-3.755,17.58-14.502,17.58-14.502c17.258-9.021,24.352-46.814,24.352-46.814
				c5.479-20.462,0.188-74.355,0.188-74.355c-0.328-84.592,41.551-125.438,41.551-125.438
				c-53.242,28.425-93.477,61.445-93.477,61.445c-20.659,16.905-2.286,46.617-2.286,46.617
				c-0.007,2.693,16.724,38.297,16.724,38.297c22.098,58.784-6.799,114.747-6.799,114.747L1447.515,812.62z"/>
		</g>
	</g>
	<polyline fill="#010101" points="1095.822,577.832 1211.202,577.832 1211.202,646.809 1181.618,646.809 1180.632,824.688 
		1211.202,824.688 1211.202,888.216 1063.279,888.216 1111.601,787.479 1111.601,754.805 1006.081,754.805 1006.081,808.352 
		1040.599,809.258 1039.611,786.569 1070.183,786.569 1024.818,888.216 908.452,888.216 908.452,824.688 936.064,824.688 
		936.064,648.621 908.452,648.621 908.452,582.369 1052.431,582.369 1006.081,686.738 1006.081,717.597 1110.614,717.597 
		1111.601,660.419 1077.085,661.327 1078.071,683.108 1046.515,684.016 1095.822,582.369 1211.202,582.369 	"/>
	
		<text transform="matrix(0.6755 0.0118 -0.0174 0.9998 611.3838 1091.4961)" fill="#010101" font-family="'BlackoakStd'" font-size="38.4806">H</text>
	
		<text transform="matrix(0.6755 0.0118 -0.0174 0.9998 664.4863 1091.54)" fill="#010101" font-family="'BlackoakStd'" font-size="38.4806">A</text>
	
		<text transform="matrix(0.6755 0.0118 -0.0174 0.9998 713.0391 1091.5996)" fill="#010101" font-family="'BlackoakStd'" font-size="38.4806">S</text>
	
		<text transform="matrix(0.6755 0.0118 -0.0174 0.9998 755.0166 1091.5439)" fill="#010101" font-family="'BlackoakStd'" font-size="38.4806">A</text>
	
		<text transform="matrix(0.6755 0.0118 -0.0174 0.9998 803.5713 1091.5098)" fill="#010101" font-family="'BlackoakStd'" font-size="38.4806">N</text>
	
		<text transform="matrix(0.6755 0.0118 -0.0174 0.9998 856.2568 1091.8535)" fill="#010101" font-family="'BlackoakStd'" font-size="38.4806"> </text>
	
		<text transform="matrix(0.6755 0.0118 -0.0174 0.9998 869.8213 1091.5488)" fill="#010101" font-family="'BlackoakStd'" font-size="38.4806">A</text>
	
		<text transform="matrix(0.6755 0.0118 -0.0174 0.9998 918.377 1091.5146)" fill="#010101" font-family="'BlackoakStd'" font-size="38.4806">N</text>
	
		<text transform="matrix(0.6755 0.0118 -0.0174 0.9998 971.0635 1091.5508)" fill="#010101" font-family="'BlackoakStd'" font-size="38.4806">D</text>
	
		<text transform="matrix(0.6755 0.0118 -0.0174 0.9998 1019.9043 1091.8604)" fill="#010101" font-family="'BlackoakStd'" font-size="38.4806"> </text>
	
		<text transform="matrix(0.6755 0.0118 -0.0174 0.9998 1033.4678 1091.5166)" fill="#010101" font-family="'BlackoakStd'" font-size="38.4806">H</text>
	
		<text transform="matrix(0.6755 0.0118 -0.0174 0.9998 1086.5703 1091.5576)" fill="#010101" font-family="'BlackoakStd'" font-size="38.4806">A</text>
	
		<text transform="matrix(0.6755 0.0118 -0.0174 0.9998 1135.125 1091.5215)" fill="#010101" font-family="'BlackoakStd'" font-size="38.4806">R</text>
	
		<text transform="matrix(0.6755 0.0118 -0.0174 0.9998 1188.0967 1091.7432)" fill="#010101" font-family="'BlackoakStd'" font-size="38.4806">I</text>
	
		<text transform="matrix(0.6755 0.0118 -0.0174 0.9998 1216.0635 1091.623)" fill="#010101" font-family="'BlackoakStd'" font-size="38.4806">S</text>
	
		<text transform="matrix(0.6755 0.0118 -0.0174 0.9998 1258.04 1091.8711)" fill="#010101" font-family="'BlackoakStd'" font-size="38.4806"> </text>
	
		<text transform="matrix(0.6755 0.0118 -0.0174 0.9998 1271.6045 1091.5801)" fill="#010101" font-family="'BlackoakStd'" font-size="38.4806">O</text>
	
		<text transform="matrix(0.6755 0.0118 -0.0174 0.9998 1318.5732 1091.5879)" fill="#010101" font-family="'BlackoakStd'" font-size="38.4806">U</text>
	
		<text transform="matrix(0.6755 0.0118 -0.0174 0.9998 1365.2295 1091.5938)" fill="#010101" font-family="'BlackoakStd'" font-size="38.4806">F</text>
	
		<text transform="matrix(0.6755 0.0118 -0.0174 0.9998 1411.209 1091.7529)" fill="#010101" font-family="'BlackoakStd'" font-size="38.4806">I</text>
	
		<text transform="matrix(0.6755 0.0118 -0.0174 0.9998 1439.1758 1091.582)" fill="#010101" font-family="'BlackoakStd'" font-size="38.4806">T</text>
	
		<text transform="matrix(0.6755 0.0118 -0.0174 0.9998 1487.0273 1091.6348)" fill="#010101" font-family="'BlackoakStd'" font-size="38.4806">S</text>
</g>
<text transform="matrix(1 0 0 1 726.5 432)" font-family="'Broadway'" font-size="75">WELCOME TO THE </text>
</svg>
